<svg width="123" height="123" viewBox="0 0 123 123" fill="none" xmlns="http://www.w3.org/2000/svg">
<circle cx="61.5" cy="61.5" r="61.5" fill="url(#paint0_linear_4311_121)"/>
<path fill-rule="evenodd" clip-rule="evenodd" d="M33 63.6963C33 47.8267 46.2614 35 62.3024 35C78.3886 35 91.65 47.8267 91.65 63.6963C91.65 71.6931 88.7417 79.1173 83.9548 85.4099C78.6739 92.3511 72.1649 98.3988 64.8385 103.146C63.1617 104.243 61.6484 104.326 59.8081 103.146C52.4398 98.3988 45.9309 92.3511 40.6952 85.4099C35.9048 79.1173 33 71.6931 33 63.6963ZM52.6451 64.5899C52.6451 69.9062 56.9832 74.0874 62.3024 74.0874C67.625 74.0874 72.0049 69.9062 72.0049 64.5899C72.0049 59.315 67.625 54.9302 62.3024 54.9302C56.9832 54.9302 52.6451 59.315 52.6451 64.5899Z" fill="white"/>
<defs>
<linearGradient id="paint0_linear_4311_121" x1="61.5" y1="0" x2="61.5" y2="123" gradientUnits="userSpaceOnUse">
<stop stop-color="white" stop-opacity="0.39"/>
<stop offset="1" stop-color="#86B53C" stop-opacity="0"/>
</linearGradient>
</defs>
</svg>
