<?xml version="1.0" standalone="no"?>
<!DOCTYPE svg PUBLIC "-//W3C//DTD SVG 20010904//EN"
 "http://www.w3.org/TR/2001/REC-SVG-20010904/DTD/svg10.dtd">
<svg version="1.0" xmlns="http://www.w3.org/2000/svg"
 width="2160.000000pt" height="3948.000000pt" viewBox="0 0 2160.000000 3948.000000"
 preserveAspectRatio="xMidYMid meet">

<g transform="translate(0.000000,3948.000000) scale(0.100000,-0.100000)"
fill="#000000" stroke="none">
<path d="M0 19740 l0 -19740 10800 0 10800 0 0 19740 0 19740 -10800 0 -10800
0 0 -19740z m4542 8686 c67 -17 161 -60 152 -69 -4 -4 1 -7 10 -7 10 0 34 -16
53 -35 19 -19 39 -32 44 -29 5 3 6 -3 2 -12 -4 -12 -3 -15 6 -10 6 4 32 -6 58
-23 26 -17 51 -31 57 -32 6 -1 0 -5 -14 -9 -23 -7 -22 -8 10 -9 19 -1 51 -11
70 -23 19 -12 62 -35 94 -51 72 -36 169 -110 184 -140 44 -92 55 -125 56 -161
0 -36 -6 -48 -54 -101 -30 -33 -70 -73 -89 -90 -75 -65 -164 -163 -175 -190
-8 -20 -8 -20 -17 0 -7 16 -8 14 -4 -8 3 -16 2 -34 -3 -40 -12 -15 -36 -257
-36 -352 1 -96 10 -124 54 -170 71 -74 78 -83 91 -121 7 -22 17 -44 22 -51 4
-6 3 -13 -4 -15 -8 -3 -10 -11 -4 -24 7 -15 9 -16 12 -3 4 18 126 43 182 37
28 -2 38 -10 53 -39 10 -20 19 -57 20 -82 1 -25 6 -41 10 -34 4 7 11 1 17 -16
6 -16 11 -31 11 -35 0 -4 8 -20 19 -35 17 -26 19 -27 35 -12 9 9 23 14 31 11
9 -3 15 0 15 9 0 8 10 20 23 26 12 6 30 20 39 30 14 14 29 17 70 13 29 -2 48
-2 42 1 -18 9 -4 45 17 45 10 0 21 -4 24 -10 9 -15 35 -12 35 5 0 8 -10 19
-21 26 -21 11 -19 13 32 44 29 19 57 31 61 29 4 -3 8 1 8 8 0 11 59 52 95 67
17 7 47 45 57 72 15 42 88 62 192 54 132 -11 154 -32 147 -134 -2 -30 0 -33
13 -22 12 10 15 8 21 -11 3 -13 16 -43 27 -68 25 -53 108 -112 191 -137 57
-17 82 -31 133 -79 21 -18 80 -52 133 -74 153 -65 225 -101 239 -118 6 -9 12
-41 12 -72 0 -31 7 -79 15 -106 8 -27 12 -56 10 -64 -5 -14 -117 -101 -123
-96 -1 2 4 16 13 32 17 34 20 77 4 72 -15 -5 -42 -86 -34 -105 4 -12 3 -13 -8
-5 -16 14 -27 6 -27 -18 0 -9 14 -21 34 -28 48 -17 120 -96 158 -172 54 -106
74 -130 113 -130 19 0 37 -5 40 -11 9 -14 67 -1 82 18 11 14 15 14 36 0 19
-12 33 -13 63 -7 66 16 94 13 94 -10 0 -11 7 -20 15 -20 8 0 15 -4 15 -9 0 -6
23 -40 50 -76 49 -65 90 -138 90 -160 0 -6 17 -17 38 -24 20 -8 61 -25 91 -39
32 -15 83 -28 125 -32 39 -4 92 -16 118 -27 38 -17 50 -29 67 -67 11 -26 23
-73 27 -106 4 -33 12 -66 18 -74 16 -20 114 -27 125 -9 6 11 24 13 77 10 38
-2 77 -8 88 -12 28 -12 145 -11 203 2 29 7 107 14 174 15 111 3 121 1 132 -17
19 -33 18 -54 -3 -65 -13 -7 -20 -20 -19 -38 1 -15 0 -33 -2 -41 -2 -7 2 -16
9 -18 7 -3 12 4 12 16 0 37 30 90 51 91 3 0 17 -9 30 -21 21 -18 24 -18 29 -4
5 14 9 14 30 -5 13 -11 25 -27 26 -34 1 -8 11 -23 23 -35 l21 -21 0 22 c0 27
15 13 23 -22 7 -28 0 -44 -24 -52 -9 -4 -19 -15 -22 -27 -4 -16 1 -21 23 -26
32 -7 62 -35 39 -35 -18 0 10 -20 29 -20 21 0 14 47 -8 53 -20 5 -29 37 -10
37 5 0 7 -7 4 -15 -5 -12 3 -15 36 -15 22 0 39 3 36 8 -2 4 9 23 25 42 24 29
30 32 39 20 9 -14 11 -13 14 9 0 5 5 13 10 18 5 5 6 3 2 -5 -6 -10 -1 -13 20
-10 24 2 30 10 42 48 8 29 11 67 7 108 -5 49 -4 62 7 62 18 0 108 -57 108 -68
0 -4 13 -9 30 -10 33 -3 107 -48 102 -64 -1 -5 2 -7 8 -3 11 7 148 -104 149
-121 1 -6 14 -14 30 -17 16 -3 36 -13 44 -22 9 -8 21 -15 28 -15 13 0 63 -40
144 -114 28 -25 58 -49 68 -52 11 -3 27 -13 37 -22 10 -10 32 -28 48 -41 17
-13 28 -30 25 -37 -4 -10 0 -12 11 -8 9 3 23 1 30 -5 11 -10 18 -7 30 11 9 12
16 28 16 34 0 7 6 14 14 17 7 3 16 24 20 46 6 38 27 61 57 61 8 0 9 -3 0 -13
-8 -10 -7 -19 4 -33 13 -16 16 -17 25 -4 5 8 10 27 10 41 0 38 37 47 51 13 5
-14 9 -34 9 -45 0 -10 6 -19 13 -19 6 0 25 -27 40 -59 26 -56 61 -91 89 -91
16 0 166 -77 183 -93 6 -7 36 -23 66 -36 30 -13 101 -45 159 -71 58 -26 123
-54 145 -63 99 -38 153 -56 185 -62 45 -9 169 -50 178 -60 4 -4 22 -13 40 -20
18 -8 35 -21 38 -29 3 -9 10 -14 14 -11 4 2 15 -4 25 -15 10 -11 22 -20 27
-20 11 0 83 -56 115 -89 12 -13 25 -33 29 -45 7 -22 86 -106 100 -106 8 -1 75
-88 99 -130 6 -10 16 -24 22 -32 6 -7 21 -39 33 -71 14 -37 27 -57 38 -58 9 0
28 -2 42 -4 14 -2 46 -4 72 -6 42 -2 57 -10 120 -61 39 -32 101 -90 136 -128
68 -73 166 -143 219 -154 17 -4 37 -14 44 -22 6 -8 17 -14 25 -14 7 0 34 -22
61 -49 45 -46 135 -102 186 -115 12 -3 43 -26 69 -51 42 -40 52 -45 93 -45 35
0 47 4 51 18 30 89 84 152 130 152 28 0 129 -43 139 -59 3 -6 13 -11 22 -11 9
0 50 -20 92 -44 42 -24 148 -81 235 -125 88 -45 167 -88 176 -96 9 -8 22 -15
28 -15 7 0 12 -7 12 -15 0 -8 9 -19 20 -25 11 -6 18 -15 15 -20 -3 -5 5 -12
17 -16 13 -4 36 -17 51 -30 16 -13 33 -24 38 -24 19 0 90 -64 85 -77 -3 -7 -1
-13 4 -13 6 0 10 4 10 10 0 5 15 1 33 -10 33 -21 77 -27 77 -11 0 6 42 9 97 8
74 -2 97 1 101 12 4 11 6 11 14 0 6 -10 11 -10 14 -3 3 6 18 26 34 44 28 31
34 33 85 32 67 -2 130 -19 148 -41 18 -20 37 -77 37 -108 0 -13 12 -68 26
-121 25 -93 28 -98 70 -127 24 -16 51 -44 61 -62 21 -39 77 -70 97 -54 18 15
156 -11 156 -29 0 -4 15 -7 33 -7 47 -1 89 -10 96 -21 3 -5 19 -12 35 -16 33
-8 86 -45 86 -61 0 -6 10 -12 23 -13 29 -3 67 6 66 16 -4 27 3 42 22 42 11 0
33 9 49 20 15 11 30 17 34 13 3 -3 6 -1 6 5 0 8 6 9 18 3 9 -5 43 -22 74 -37
32 -15 66 -35 77 -45 11 -11 25 -19 30 -19 13 0 91 -92 91 -107 0 -7 7 -10 16
-6 12 4 15 2 12 -8 -6 -16 19 -38 44 -39 9 0 23 -6 31 -14 8 -9 24 -12 37 -9
19 5 21 11 17 47 -3 23 -11 64 -18 93 -11 43 -10 59 3 98 12 41 20 50 54 62
64 24 130 31 295 32 176 1 223 -9 329 -67 36 -19 92 -49 124 -66 99 -52 213
-179 293 -329 6 -12 40 -47 74 -78 l62 -56 0 -91 c-1 -121 17 -156 136 -271
l92 -89 3 -136 c3 -129 5 -137 27 -156 14 -11 39 -19 62 -20 20 0 37 -4 37 -9
0 -17 -104 1 -118 20 -7 11 -24 19 -38 19 -16 0 -24 6 -25 18 -1 16 -2 16 -6
0 -10 -39 -21 -14 -28 62 l-7 80 -34 0 c-24 0 -34 5 -34 15 0 11 -11 15 -40
15 l-40 0 0 -40 0 -40 -40 0 c-38 0 -40 -2 -40 -30 0 -28 -2 -30 -40 -30 -29
0 -40 4 -40 15 0 11 -11 15 -40 15 -29 0 -40 -4 -40 -15 0 -11 -11 -15 -40
-15 -29 0 -40 4 -40 15 0 11 11 15 40 15 l40 0 0 40 0 40 -200 0 -200 0 0 80
0 80 -40 0 -40 0 0 40 0 40 -80 0 -80 0 0 40 0 40 -80 0 c-64 0 -80 -3 -80
-15 0 -11 -11 -15 -40 -15 -29 0 -40 4 -40 15 0 13 -20 15 -120 15 -100 0
-120 -2 -120 -15 0 -11 -11 -15 -40 -15 l-40 0 0 40 0 40 -40 0 c-29 0 -40 4
-40 15 0 13 -20 15 -120 15 l-120 0 0 -40 0 -40 -80 0 -80 0 0 80 0 80 -55 0
-55 0 0 40 0 40 55 0 c42 0 55 3 55 15 0 12 -16 15 -80 15 -64 0 -80 -3 -80
-15 0 -8 7 -15 15 -15 11 0 15 -11 15 -40 0 -29 -4 -40 -15 -40 -12 0 -15 -16
-15 -80 l0 -80 -80 0 -80 0 0 80 0 80 -40 0 -40 0 0 40 0 40 40 0 40 0 0 -40
0 -40 40 0 40 0 0 40 0 40 -40 0 c-29 0 -40 4 -40 15 0 11 -11 15 -40 15 -29
0 -40 -4 -40 -15 0 -12 -16 -15 -80 -15 l-80 0 0 -40 0 -40 -120 0 -120 0 0
40 0 40 -200 0 -200 0 0 -40 0 -40 -80 0 -80 0 0 40 0 40 -40 0 -40 0 0 -40 0
-40 -80 0 -80 0 0 40 0 40 -40 0 -40 0 0 -40 0 -40 -280 0 -280 0 0 -40 0 -40
-80 0 -80 0 0 40 0 40 -1720 0 c-1522 0 -1720 2 -1720 15 0 11 -11 15 -40 15
-29 0 -40 -4 -40 -15 0 -12 -20 -15 -120 -15 -100 0 -120 3 -120 15 0 11 -11
15 -40 15 -29 0 -40 -4 -40 -15 0 -12 -20 -15 -120 -15 -100 0 -120 3 -120 15
0 11 -11 15 -40 15 -29 0 -40 -4 -40 -15 0 -13 -33 -15 -240 -15 l-240 0 0
-40 0 -40 -80 0 -80 0 0 40 0 40 -80 0 -80 0 0 -40 0 -40 -560 0 -560 0 0 40
0 40 -80 0 -80 0 0 -40 0 -40 -40 0 -40 0 0 40 0 40 -80 0 -80 0 0 -40 0 -40
-320 0 -320 0 0 -40 0 -40 -40 0 -40 0 0 -40 0 -40 -65 0 -65 0 0 40 0 40 65
0 65 0 0 40 0 40 -240 0 -240 0 0 -40 0 -40 -200 0 -200 0 0 -40 0 -40 -80 0
-80 0 0 -40 0 -40 40 0 c29 0 40 -4 40 -15 0 -11 -11 -15 -40 -15 -29 0 -40 4
-40 15 0 9 -9 15 -25 15 -22 0 -25 -4 -25 -40 l0 -40 -55 0 c-42 0 -55 3 -55
15 0 11 -11 15 -40 15 -38 0 -40 -2 -40 -30 0 -28 -2 -30 -40 -30 -29 0 -40 4
-40 15 0 13 -20 15 -120 15 -100 0 -120 -2 -120 -15 0 -11 -11 -15 -39 -15
-44 0 -51 10 -51 70 0 29 -6 43 -22 54 -16 12 -18 16 -7 16 17 0 44 46 40 68
-3 17 14 15 29 -3 7 -8 20 -15 29 -15 11 1 8 7 -11 21 -26 19 -27 22 -13 41
10 15 11 26 4 39 -5 10 -10 30 -11 45 -2 20 -11 30 -36 41 -35 15 -50 42 -56
102 -1 20 -14 59 -28 86 -21 44 -29 50 -57 52 -18 1 -47 8 -64 17 -40 19 -116
97 -151 156 -15 25 -40 63 -56 85 -16 22 -29 46 -30 53 0 7 -9 33 -20 58 -11
24 -23 58 -27 74 -3 17 -10 33 -14 36 -5 3 -9 34 -9 70 0 35 -3 64 -7 64 -16
0 -43 78 -52 149 -5 40 -15 79 -20 84 -6 6 -11 25 -11 42 0 17 -6 55 -14 85
-7 30 -16 78 -20 106 l-6 52 70 75 c52 55 83 80 118 93 26 10 52 21 57 24 6 4
24 10 40 14 60 14 114 107 115 193 0 41 -4 54 -19 62 -10 6 -25 21 -34 35 -16
23 -15 29 17 113 45 118 53 148 61 214 9 69 1 97 -28 101 -31 4 -67 73 -67
128 0 40 5 51 41 88 23 23 44 42 48 42 15 0 41 72 35 98 -18 81 -24 90 -71
106 -44 15 -135 77 -179 122 -11 12 -31 27 -44 34 -55 29 -100 77 -100 106 0
17 4 22 15 18 12 -5 15 3 15 36 0 32 -3 41 -14 37 -20 -8 -27 18 -15 51 13 34
11 287 -3 322 -3 8 -10 42 -14 75 l-9 60 -35 1 c-56 1 -119 15 -131 30 -15 19
-5 109 16 140 8 13 13 24 11 24 -3 0 2 19 12 43 12 30 16 64 14 120 -3 75 -4
78 -25 72 -18 -5 -17 -3 6 12 38 25 34 39 -10 34 -6 -1 -14 12 -18 29 -4 16
-11 30 -16 30 -5 0 -9 11 -9 25 0 14 -4 25 -10 25 -5 0 -10 7 -10 15 0 8 -5
15 -11 15 -19 0 -70 63 -59 74 16 16 12 25 -9 19 -29 -7 -70 25 -76 60 -21
117 -11 208 30 257 6 8 18 36 24 61 12 45 12 73 -5 282 -4 53 -3 82 5 90 6 6
11 30 11 53 0 35 -3 43 -17 41 -14 -1 -18 -10 -18 -45 0 -35 -4 -46 -17 -48
-10 -1 -20 2 -24 7 -3 5 0 9 7 9 7 0 9 3 6 7 -4 3 -15 -2 -26 -11 -12 -11 -21
-14 -26 -7 -3 6 -1 11 4 11 6 0 11 6 11 14 0 9 8 12 25 8 31 -5 36 23 5 31
-11 3 -18 1 -14 -4 11 -19 -8 -8 -35 20 -26 27 -28 34 -25 88 7 89 11 132 23
208 12 84 13 140 0 85 -6 -28 -7 -24 -4 20 3 30 7 102 11 160 6 110 15 140 40
140 8 0 13 -4 10 -8 -6 -10 21 -35 48 -45 9 -4 15 -11 12 -15 -3 -5 1 -9 9 -9
17 0 20 13 5 22 -7 4 -7 12 0 24 5 10 6 22 2 26 -4 5 2 5 13 0 36 -14 50 -10
53 13 3 16 10 22 28 22 21 0 24 5 24 36 0 26 5 37 18 41 28 7 41 36 43 102 2
43 6 61 16 61 16 0 18 77 2 82 -7 2 -7 18 1 53 6 28 8 75 5 106 -4 31 -2 73 4
93 8 32 7 40 -10 57 -10 10 -14 19 -8 19 5 0 7 4 4 10 -8 13 82 68 120 74 17
3 72 7 124 9 116 5 128 15 154 132 10 44 30 104 45 134 25 50 85 121 102 121
4 0 10 13 13 28 6 31 68 102 89 102 7 1 23 9 36 20 18 15 27 39 39 107 8 48
17 98 19 111 5 26 29 28 106 8z m-1028 -1515 c-9 -10 -26 18 -18 30 5 9 9 8
14 -7 4 -10 6 -21 4 -23z m2131 -371 c3 -5 -1 -10 -10 -10 -9 0 -13 5 -10 10
3 6 8 10 10 10 2 0 7 -4 10 -10z m1536 -355 c27 -14 52 -32 55 -39 8 -21 -12
-59 -52 -98 -40 -40 -62 -50 -43 -20 9 14 8 38 -3 100 -9 45 -14 82 -11 82 2
0 26 -11 54 -25z m-3704 -32 c-3 -10 -5 -4 -5 12 0 17 2 24 5 18 2 -7 2 -21 0
-30z m5823 -1373 c0 -5 -2 -10 -4 -10 -3 0 -8 5 -11 10 -3 6 -1 10 4 10 6 0
11 -4 11 -10z m-3380 -3900 l0 -40 -80 0 c-64 0 -80 3 -80 15 0 11 -11 15 -40
15 -36 0 -40 3 -40 25 l0 25 120 0 120 0 0 -40z m480 0 l0 -40 -80 0 -80 0 0
40 0 40 80 0 80 0 0 -40z m-2003 -36 c-3 -3 -12 -4 -19 -1 -8 3 -5 6 6 6 11 1
17 -2 13 -5z m-101 -59 c-24 -18 -15 -30 11 -16 18 9 20 6 22 -45 2 -48 0 -54
-17 -54 -16 0 -21 -8 -24 -38 -1 -21 -2 -45 0 -55 4 -21 22 -23 22 -2 0 11 9
7 31 -12 27 -24 29 -32 24 -68 -6 -37 -5 -39 10 -21 14 19 15 17 15 -26 0 -45
-24 -88 -39 -72 -3 4 0 9 7 11 6 3 12 17 12 31 l-1 27 -15 -27 c-8 -16 -22
-28 -31 -28 -15 0 -15 1 0 18 19 20 28 106 11 107 -29 0 -170 195 -160 221 3
7 22 20 43 29 21 8 45 19 53 24 8 6 22 10 30 10 11 0 10 -3 -4 -14z m111 -327
c-2 -13 -4 -3 -4 22 0 25 2 35 4 23 2 -13 2 -33 0 -45z m13696 -89 c24 -6 37
-15 37 -27 0 -15 -2 -15 -10 -2 -8 12 -12 13 -19 2 -6 -11 -11 -11 -24 2 -9 9
-33 16 -56 16 -23 0 -41 3 -41 8 0 11 71 12 113 1z m-12475 -28 c17 -17 32
-35 32 -41 0 -6 5 -8 11 -4 7 4 10 1 7 -7 -3 -8 2 -19 10 -25 9 -6 13 -18 9
-28 -9 -22 -24 -20 -32 3 -13 42 -88 101 -130 101 -8 0 -15 7 -15 15 0 28 71
19 108 -14z m-151 -13 c-3 -7 -5 -2 -5 12 0 14 2 19 5 13 2 -7 2 -19 0 -25z
m33 17 c0 -8 -4 -15 -10 -15 -5 0 -7 7 -4 15 4 8 8 15 10 15 2 0 4 -7 4 -15z
m12737 -27 c-3 -8 -6 -5 -6 6 -1 11 2 17 5 13 3 -3 4 -12 1 -19z m-12760 -97
c-13 -29 -27 -42 -38 -35 -12 7 2 44 17 44 8 0 14 10 14 23 0 17 2 19 9 8 6
-9 5 -24 -2 -40z m12798 -74 c10 -75 13 -83 39 -95 l28 -14 -22 -15 c-25 -18
-36 -9 -47 40 -3 15 -12 27 -19 27 -8 0 -14 9 -14 21 0 11 4 18 9 15 16 -10
18 17 6 72 -9 37 -9 50 -2 43 6 -6 16 -48 22 -94z m-12382 59 c24 -18 21 -26
-8 -26 -14 0 -25 4 -25 10 0 5 -8 6 -17 3 -15 -6 -16 -5 -3 10 18 20 30 20 53
3z m129 -25 c6 17 27 2 38 -25 9 -24 1 -44 -10 -25 -7 10 -12 10 -23 1 -12
-10 -17 -6 -31 22 -21 45 -20 53 3 32 14 -13 20 -14 23 -5z m-959 -8 c-7 -2
-19 -2 -25 0 -7 3 -2 5 12 5 14 0 19 -2 13 -5z m107 -18 c-7 -8 -14 -15 -15
-15 -2 0 -5 7 -9 15 -4 10 1 15 16 15 17 0 18 -2 8 -15z m436 0 c-19 -14 -36
-12 -36 6 0 5 12 9 28 9 26 -1 26 -1 8 -15z m-1001 -35 c-10 -17 -57 -37 -100
-43 -28 -5 -34 -4 -20 3 17 7 18 9 3 9 -10 1 -18 6 -18 11 0 6 20 10 44 10 25
0 48 5 51 10 3 6 15 10 26 10 11 0 17 -5 14 -10z m1203 -16 c36 -10 27 -34
-13 -34 -39 0 -87 19 -79 31 6 10 58 12 92 3z m-1418 -14 c0 -5 -8 -10 -17
-10 -15 0 -16 2 -3 10 19 12 20 12 20 0z m1280 -10 c0 -5 -2 -10 -4 -10 -3 0
-8 5 -11 10 -3 6 -1 10 4 10 6 0 11 -4 11 -10z m1120 0 l25 -7 -25 -6 c-30 -7
-110 -16 -205 -23 -63 -4 -68 -3 -51 10 10 8 41 17 70 20 28 3 65 8 81 9 49 6
79 5 105 -3z m-550 -50 c0 -5 -4 -10 -10 -10 -5 0 -10 5 -10 10 0 6 5 10 10
10 6 0 10 -4 10 -10z m-2234 -25 c-1 -33 -16 -33 -16 0 0 14 4 25 9 25 5 0 8
-11 7 -25z m14469 5 c27 -6 49 -21 73 -49 33 -40 35 -41 98 -41 36 0 64 -4 64
-10 0 -7 95 -8 283 -4 155 3 714 7 1242 8 528 2 979 7 1003 11 28 5 42 13 43
24 1 13 2 13 6 -1 5 -22 23 -24 23 -4 0 8 4 17 9 20 5 4 7 -4 3 -16 -3 -14 -2
-19 6 -14 16 9 15 -17 -3 -277 -26 -369 -50 -607 -85 -837 -82 -543 -155 -887
-275 -1310 -148 -518 -269 -852 -509 -1407 -72 -166 -328 -685 -409 -828 -56
-98 -210 -357 -256 -430 l-29 -46 -269 -4 c-467 -7 -2557 -10 -2588 -3 -16 4
-50 2 -74 -4 -45 -11 -126 -52 -136 -69 -10 -15 -30 -10 -55 14 l-25 22 -694
-3 c-418 -2 -705 -8 -720 -14 -14 -5 -36 -18 -47 -29 l-21 -20 -7 39 c-7 46
-22 61 -73 73 -38 8 -98 9 -975 6 -269 -1 -488 1 -488 6 0 11 -94 9 -125 -3
-14 -5 -24 -6 -21 -1 16 25 -6061 28 -6086 3 -17 -17 -98 -16 -98 2 0 9 -8 12
-26 8 -16 -3 -23 -9 -20 -18 3 -7 1 -16 -4 -19 -6 -4 -10 -14 -10 -23 -1 -22
-34 -62 -53 -62 -7 0 -26 11 -41 23 l-27 24 -729 2 c-489 1 -731 -2 -735 -9
-3 -5 -10 -10 -14 -10 -7 0 -57 82 -53 88 1 1 0 2 -3 2 -3 0 -13 0 -22 0 -15
0 -15 -1 1 -13 14 -11 -4 -12 -111 -10 -70 1 -164 5 -208 9 -44 4 -177 9 -295
10 -118 2 -283 5 -367 6 -83 2 -147 1 -143 -2 4 -3 -56 -4 -133 -2 -278 7
-2345 4 -2357 -3 -6 -4 -10 -16 -8 -27 6 -45 -19 -24 -73 60 -296 461 -670
1213 -881 1772 -46 122 -171 477 -198 565 -11 33 -37 119 -60 190 -52 166
-170 631 -184 725 -3 19 -16 88 -30 154 -76 354 -155 983 -192 1507 -7 109 2
187 19 170 6 -6 41 -11 78 -11 37 0 70 -3 72 -7 3 -5 171 -2 374 4 266 9 677
11 1488 6 616 -4 1154 -5 1195 -3 145 8 291 3 470 -14 68 -7 317 -7 450 0 74
4 187 8 250 10 63 2 138 6 165 9 88 11 1084 8 1225 -4 202 -16 356 -24 350
-18 -3 3 -28 8 -55 11 -28 2 -52 5 -55 6 -15 6 53 18 103 19 44 1 57 -2 57
-14 0 -8 5 -15 11 -15 5 0 7 5 3 12 -5 7 -3 8 6 3 19 -12 61 -14 307 -16 123
-1 226 1 230 5 4 4 1 11 -7 16 -18 11 15 19 80 20 25 1 144 3 265 6 266 6 277
6 339 -2 27 -3 46 -2 43 2 -3 5 15 7 39 5 27 -2 44 1 44 8 0 8 50 11 160 11
88 0 160 -4 160 -8 0 -5 18 -8 40 -7 22 1 40 -2 40 -7 0 -4 18 -8 40 -8 34 0
40 -3 40 -21 0 -20 3 -21 80 -14 46 4 80 3 80 -2 0 -5 18 -9 40 -10 22 0 40 3
40 8 0 11 157 12 164 1 4 -7 89 -8 191 -2 l40 2 -50 9 c-27 5 -120 10 -206 11
-120 2 -155 6 -152 16 4 8 -5 12 -27 12 -23 0 -31 -4 -27 -14 4 -10 -5 -12
-41 -8 -26 3 -48 9 -50 13 -2 5 -37 9 -78 9 -61 0 -72 3 -68 15 7 18 44 20 44
3 0 -8 3 -9 10 -2 5 5 48 6 107 2 57 -4 139 -2 194 4 100 11 269 3 269 -13 0
-5 -36 -9 -80 -9 -54 0 -80 -4 -80 -12 0 -8 32 -9 120 -5 77 5 120 3 120 -3 0
-6 18 -10 40 -10 22 0 40 4 40 10 0 5 35 11 78 13 43 2 24 4 -43 3 -106 -1
-120 1 -123 17 -3 15 6 17 82 17 47 0 86 -4 86 -9 0 -5 101 -9 240 -8 132 1
240 -1 240 -5 0 -4 -17 -9 -37 -11 -40 -5 137 1 222 7 46 3 47 3 10 -4 -28 -5
-2 -7 83 -8 68 -1 121 1 119 6 -3 4 17 5 43 4 41 -3 49 -7 54 -28 8 -31 43
-33 51 -1 6 21 10 22 90 19 64 -3 85 -7 85 -17 0 -11 -20 -15 -82 -18 -67 -2
-60 -3 40 -5 l122 -2 1 28 1 27 10 -27 c12 -35 45 -38 53 -5 6 22 7 22 90 13
47 -5 85 -13 85 -17 0 -5 -37 -10 -82 -12 -67 -2 -60 -3 40 -5 103 -2 122 0
122 13 0 11 11 15 40 15 25 0 40 5 41 13 0 6 4 2 9 -10 6 -14 18 -23 30 -23
12 0 24 9 30 23 5 12 9 16 9 10 1 -8 16 -13 41 -13 53 0 51 -18 -2 -23 -24 -2
-6 -4 40 -5 60 -2 82 1 82 11 0 9 41 13 160 16 109 2 160 0 160 -8 0 -7 -44
-12 -122 -14 -68 -1 40 -4 239 -5 207 -1 363 2 365 7 5 14 158 26 158 13 0 -6
-19 -13 -42 -15 -24 -2 14 -4 84 -5 122 -2 126 -1 121 18 -6 24 -23 23 332 21
251 -2 274 -2 298 -1 47 2 252 -11 252 -16 0 -4 -37 -6 -82 -5 -53 2 -83 -2
-83 -8 0 -7 34 -11 93 -11 50 0 572 -1 1160 -3 877 -3 1067 -1 1067 10 0 8
-15 13 -42 14 -42 1 -42 2 12 10 81 12 579 19 586 8 3 -5 44 -7 97 -3 51 3
101 6 112 5 51 -2 109 1 117 5 5 3 6 10 3 15 -4 5 2 9 13 9 10 0 46 3 79 6 55
6 60 5 66 -15 5 -19 1 -21 -41 -21 -25 0 -43 -3 -39 -6 5 -6 88 -8 520 -13
157 -1 153 -20 -5 -23 -68 -2 256 -3 720 -4 807 0 842 0 842 18 0 10 7 18 15
18 8 0 15 5 15 10 0 6 7 10 15 10 8 0 15 -4 15 -10 0 -5 23 -10 50 -10 31 0
50 -4 50 -12 0 -6 3 -9 6 -6 3 4 0 16 -6 28 -11 20 -10 21 9 10 17 -8 28 -6
58 10 l38 21 -51 -5 c-48 -4 -74 5 -74 26 0 11 55 10 105 -2z m-9925 -20 c0
-5 -18 -10 -40 -10 -22 0 -40 5 -40 10 0 6 18 10 40 10 22 0 40 -4 40 -10z
m-4480 -10 c0 -5 -6 -10 -14 -10 -8 0 -18 5 -21 10 -3 6 3 10 14 10 12 0 21
-4 21 -10z m110 -6 c0 -14 -3 -14 -15 -4 -8 7 -15 14 -15 16 0 2 7 4 15 4 8 0
15 -7 15 -16z m12510 -17 c14 -2 -13 -4 -60 -4 -47 0 -66 2 -42 4 30 3 42 9
42 20 0 15 2 15 18 0 9 -8 28 -17 42 -20z m-12470 13 c0 -5 -7 -10 -15 -10 -8
0 -15 5 -15 10 0 6 7 10 15 10 8 0 15 -4 15 -10z m11100 0 c0 -5 -4 -10 -10
-10 -5 0 -10 5 -10 10 0 6 5 10 10 10 6 0 10 -4 10 -10z m513 -11 c-6 -6 -28
-9 -49 -6 l-39 4 43 1 c24 1 42 7 42 14 0 6 3 8 7 5 4 -4 2 -12 -4 -18z m927
11 c0 -5 -4 -10 -10 -10 -5 0 -10 5 -10 10 0 6 5 10 10 10 6 0 10 -4 10 -10z
m60 0 c0 -5 -7 -10 -15 -10 -8 0 -15 5 -15 10 0 6 7 10 15 10 8 0 15 -4 15
-10z m-4927 -17 c-13 -2 -33 -2 -45 0 -13 2 -3 4 22 4 25 0 35 -2 23 -4z
m5040 0 c-13 -2 -33 -2 -45 0 -13 2 -3 4 22 4 25 0 35 -2 23 -4z m-3333 -18
c0 -4 -411 -8 -506 -5 -3 0 -3 3 -1 8 6 8 507 6 507 -3z m120 -5 c-57 -6 -73
-4 -66 8 2 4 30 5 63 2 l58 -4 -55 -6z m430 12 c0 -4 -57 -8 -127 -8 -123 -1
-125 -1 -38 6 143 10 165 10 165 2z m320 0 c0 -4 -20 -8 -44 -8 -25 0 -42 4
-40 8 3 5 23 8 45 8 21 0 39 -3 39 -8z m294 0 c3 -5 -1 -9 -9 -9 -8 0 -15 4
-15 9 0 4 4 8 9 8 6 0 12 -4 15 -8z m266 -9 c3 -3 -48 -3 -113 -1 -65 1 -121
6 -123 10 -5 8 227 -1 236 -9z m55 8 c7 -12 -12 -24 -25 -16 -11 7 -4 25 10
25 5 0 11 -4 15 -9z m1781 -4 c4 -4 43 -7 86 -7 45 0 78 -4 78 -10 0 -16 -157
-13 -163 4 -3 8 -17 13 -36 11 -17 -1 -33 1 -36 4 -5 10 62 8 71 -2z m459 4
c7 -12 -12 -24 -25 -16 -11 7 -4 25 10 25 5 0 11 -4 15 -9z m-5735 -11 c0 -6
-33 -10 -80 -10 -47 0 -80 4 -80 10 0 6 33 10 80 10 47 0 80 -4 80 -10z m160
0 c0 -5 -18 -10 -40 -10 -22 0 -40 5 -40 10 0 6 18 10 40 10 22 0 40 -4 40
-10z m5483 3 c-24 -2 -62 -2 -85 0 -24 2 -5 4 42 4 47 0 66 -2 43 -4z m180 0
c-13 -2 -33 -2 -45 0 -13 2 -3 4 22 4 25 0 35 -2 23 -4z m-13356 -5129 c-3 -3
-12 -4 -19 -1 -8 3 -5 6 6 6 11 1 17 -2 13 -5z m15264 -647 c-10 -9 -11 -8 -5
6 3 10 9 15 12 12 3 -3 0 -11 -7 -18z m-3261 -153 c289 -4 384 -10 375 -24 -9
-15 14 -21 35 -10 15 8 20 8 20 -2 0 -9 2 -10 8 -1 15 23 45 19 52 -7 20 -72
21 -82 9 -74 -7 4 -9 3 -5 -4 3 -6 -5 -39 -19 -73 -14 -34 -25 -68 -25 -76 0
-7 -9 -13 -19 -13 -10 0 -29 -12 -42 -27 -13 -15 -40 -43 -59 -62 -47 -48 -70
-85 -70 -113 0 -38 -33 -117 -62 -150 -16 -18 -28 -34 -28 -38 0 -11 -54 -38
-118 -59 -41 -14 -76 -35 -103 -61 -47 -45 -82 -57 -191 -66 -72 -6 -131 4
-148 26 -3 4 -13 11 -24 17 -10 6 -44 33 -75 61 -95 86 -161 142 -169 142 -4
0 -17 14 -27 31 -35 56 -64 103 -77 129 -7 13 -22 34 -34 47 -11 12 -34 43
-49 68 -16 25 -33 45 -37 45 -5 0 -13 -11 -18 -25 -13 -35 -44 -32 -68 8 -12
17 -35 51 -51 75 -17 23 -31 47 -31 51 0 5 -7 11 -15 15 -20 7 -20 56 0 56 8
0 12 -6 9 -15 -11 -27 8 -39 22 -14 7 13 9 28 5 34 -15 21 -5 39 29 47 35 9
60 18 116 45 23 11 65 13 182 11 84 -2 152 1 152 6 0 4 36 5 80 1 61 -5 80 -4
80 5 0 10 14 11 58 5 31 -4 181 -9 332 -11z m-9283 -30 c-3 -3 -12 -4 -19 -1
-8 3 -5 6 6 6 11 1 17 -2 13 -5z"/>
<path d="M5140 27629 c0 -5 5 -7 10 -4 6 3 10 8 10 11 0 2 -4 4 -10 4 -5 0
-10 -5 -10 -11z"/>
<path d="M3630 26910 c0 -5 5 -10 10 -10 6 0 10 5 10 10 0 6 -4 10 -10 10 -5
0 -10 -4 -10 -10z"/>
<path d="M5596 26506 c6 -16 4 -18 -10 -13 -11 5 -16 3 -14 -5 2 -6 9 -13 15
-15 15 -5 26 28 13 41 -8 8 -9 6 -4 -8z"/>
<path d="M3440 26277 c0 -3 7 -18 15 -33 l16 -29 -3 29 c-2 16 -9 31 -15 34
-7 2 -13 2 -13 -1z"/>
<path d="M7575 25400 c-10 -11 -24 -20 -32 -20 -7 0 -13 -7 -13 -15 0 -19 34
-19 50 0 7 8 16 13 20 10 16 -10 22 17 8 31 -12 13 -17 12 -33 -6z"/>
<path d="M3536 25351 c-17 -18 -16 -20 1 -40 9 -12 21 -21 26 -21 5 0 4 7 -3
15 -10 12 -10 19 -2 27 14 14 16 38 4 38 -5 0 -17 -9 -26 -19z"/>
<path d="M3587 25285 c-4 -8 -2 -17 3 -20 6 -4 10 3 10 14 0 25 -6 27 -13 6z"/>
<path d="M9065 24790 c-3 -5 1 -10 10 -10 9 0 13 5 10 10 -3 6 -8 10 -10 10
-2 0 -7 -4 -10 -10z"/>
<path d="M9645 24770 c-4 -6 3 -10 14 -10 25 0 27 6 6 13 -8 4 -17 2 -20 -3z"/>
<path d="M9135 24760 c3 -5 13 -10 21 -10 8 0 12 5 9 10 -3 6 -13 10 -21 10
-8 0 -12 -4 -9 -10z"/>
<path d="M8467 24753 c-14 -13 -6 -33 13 -33 11 0 20 6 20 12 0 7 7 2 16 -10
8 -12 24 -27 35 -33 19 -10 20 -8 14 13 -13 43 -74 75 -98 51z"/>
<path d="M9201 24674 c0 -11 3 -14 6 -6 3 7 2 16 -1 19 -3 4 -6 -2 -5 -13z"/>
<path d="M9386 24624 c-11 -7 -18 -16 -15 -18 2 -2 13 2 23 10 11 7 18 16 15
18 -2 2 -13 -2 -23 -10z"/>
<path d="M3817 24568 c-4 -13 -1 -29 7 -37 12 -11 13 -8 11 18 -3 40 -11 48
-18 19z"/>
<path d="M9440 24504 c0 -14 3 -14 15 -4 8 7 15 14 15 16 0 2 -7 4 -15 4 -8 0
-15 -7 -15 -16z"/>
<path d="M10526 24381 c-3 -5 -2 -20 3 -33 7 -16 10 -18 10 -6 1 9 6 18 12 20
7 2 6 8 -4 16 -9 8 -18 9 -21 3z"/>
<path d="M3920 24189 c0 -6 -11 -20 -25 -31 -32 -25 -32 -38 1 -38 25 0 26 -2
22 -49 -1 -27 -1 -48 1 -46 2 3 12 0 21 -5 13 -7 20 -6 24 6 8 21 8 26 -3 20
-5 -3 -12 30 -16 74 -4 44 -11 80 -16 80 -5 0 -9 -5 -9 -11z"/>
<path d="M4153 22910 c0 -25 2 -35 4 -22 2 12 2 32 0 45 -2 12 -4 2 -4 -23z"/>
<path d="M15665 21660 c4 -6 11 -8 16 -5 14 9 11 15 -7 15 -8 0 -12 -5 -9 -10z"/>
<path d="M16497 21653 c-15 -14 -7 -63 12 -73 26 -13 31 -13 31 5 0 20 -35 76
-43 68z"/>
<path d="M14190 21200 c0 -22 5 -40 10 -40 6 0 10 18 10 40 0 22 -4 40 -10 40
-5 0 -10 -18 -10 -40z"/>
<path d="M7520 21095 c0 -11 11 -15 40 -15 29 0 40 4 40 15 0 11 -11 15 -40
15 -29 0 -40 -4 -40 -15z"/>
<path d="M4450 20960 c0 -5 7 -10 16 -10 8 0 12 5 9 10 -3 6 -10 10 -16 10 -5
0 -9 -4 -9 -10z"/>
<path d="M4530 20800 c0 -29 4 -40 15 -40 11 0 15 11 15 40 0 29 -4 40 -15 40
-11 0 -15 -11 -15 -40z"/>
<path d="M4883 20800 c0 -25 2 -35 4 -22 2 12 2 32 0 45 -2 12 -4 2 -4 -23z"/>
<path d="M4953 20800 c0 -25 2 -35 4 -22 2 12 2 32 0 45 -2 12 -4 2 -4 -23z"/>
<path d="M4425 20800 c-3 -5 -15 -10 -26 -10 -10 0 -19 -5 -19 -11 0 -6 7 -8
16 -5 8 3 12 2 9 -4 -4 -6 10 -9 34 -8 36 1 41 4 41 25 0 18 -5 23 -24 23 -14
0 -28 -4 -31 -10z"/>
<path d="M4640 20775 c0 -11 11 -15 40 -15 29 0 40 4 40 15 0 11 -11 15 -40
15 -29 0 -40 -4 -40 -15z"/>
<path d="M17787 20683 c-4 -3 -6 -52 -5 -107 1 -73 3 -84 5 -38 2 34 8 62 13
62 5 0 8 20 7 45 -2 44 -6 52 -20 38z"/>
<path d="M4226 20667 c3 -10 9 -15 12 -12 3 3 0 11 -7 18 -10 9 -11 8 -5 -6z"/>
<path d="M8018 19953 c12 -2 32 -2 45 0 12 2 2 4 -23 4 -25 0 -35 -2 -22 -4z"/>
<path d="M9378 19953 c12 -2 32 -2 45 0 12 2 2 4 -23 4 -25 0 -35 -2 -22 -4z"/>
<path d="M9680 19940 c0 -5 18 -10 40 -10 22 0 40 5 40 10 0 6 -18 10 -40 10
-22 0 -40 -4 -40 -10z"/>
<path d="M8080 19931 c0 -6 -19 -12 -42 -14 -24 -2 29 -4 117 -4 88 0 143 2
123 4 -21 2 -38 8 -38 14 0 5 -36 9 -80 9 -44 0 -80 -4 -80 -9z"/>
<path d="M9200 19927 c0 -17 72 -16 78 1 2 8 -10 12 -37 12 -27 0 -41 -4 -41
-13z"/>
<path d="M9440 19930 c0 -5 18 -10 40 -10 22 0 40 5 40 10 0 6 -18 10 -40 10
-22 0 -40 -4 -40 -10z"/>
<path d="M10000 19927 c0 -7 15 -12 40 -13 27 -1 40 3 40 12 0 10 -13 14 -40
14 -25 0 -40 -5 -40 -13z"/>
<path d="M12240 19927 c0 -17 72 -16 78 1 2 8 -10 12 -37 12 -27 0 -41 -4 -41
-13z"/>
<path d="M12560 19930 c0 -5 18 -10 40 -10 22 0 40 5 40 10 0 6 -18 10 -40 10
-22 0 -40 -4 -40 -10z"/>
<path d="M7068 19923 c12 -2 30 -2 40 0 9 3 -1 5 -23 4 -22 0 -30 -2 -17 -4z"/>
<path d="M7200 19920 c0 -4 18 -7 39 -6 22 0 37 3 35 6 -8 7 -74 7 -74 0z"/>
<path d="M7316 19922 c-3 -5 1 -9 9 -9 8 0 12 4 9 9 -3 4 -7 8 -9 8 -2 0 -6
-4 -9 -8z"/>
<path d="M12745 19920 c-3 -5 3 -10 15 -10 12 0 18 5 15 10 -3 6 -10 10 -15
10 -5 0 -12 -4 -15 -10z"/>
<path d="M9031 19911 c-8 -5 5 -7 35 -4 68 6 77 11 24 12 -25 0 -51 -3 -59 -8z"/>
<path d="M11070 19910 c0 -5 5 -10 10 -10 6 0 10 5 10 10 0 6 -4 10 -10 10 -5
0 -10 -4 -10 -10z"/>
<path d="M16358 19913 c23 -2 59 -2 80 0 20 2 1 4 -43 4 -44 0 -61 -2 -37 -4z"/>
<path d="M18268 19913 c6 -2 18 -2 25 0 6 3 1 5 -13 5 -14 0 -19 -2 -12 -5z"/>
<path d="M9698 19903 c12 -2 32 -2 45 0 12 2 2 4 -23 4 -25 0 -35 -2 -22 -4z"/>
<path d="M3917 19161 c-21 -4 -43 -13 -50 -20 -7 -7 -13 -61 -15 -140 -4 -125
-4 -129 18 -141 14 -7 34 -9 54 -4 51 12 168 7 211 -8 30 -11 55 -34 100 -90
51 -65 219 -306 220 -316 0 -2 -483 -3 -1072 -2 l-1073 1 0 -430 0 -431 -22
-5 c-13 -3 -122 -4 -243 -3 l-220 3 -2 240 c-2 132 -7 275 -13 318 -19 153
-75 228 -212 283 -62 25 -85 29 -163 28 -96 0 -193 -22 -234 -53 -23 -17 -24
-24 -26 -150 -2 -72 1 -131 5 -131 4 0 25 7 46 16 43 18 167 15 217 -4 l27
-12 0 -269 0 -270 -50 -47 c-67 -63 -86 -114 -71 -192 14 -73 88 -270 133
-354 l33 -63 139 -3 c90 -2 143 1 150 8 7 7 13 81 16 188 l5 177 242 0 243 0
0 -375 -1 -375 -75 -34 c-89 -41 -151 -92 -203 -170 -56 -83 -65 -118 -58
-239 4 -92 9 -111 38 -169 63 -123 139 -179 309 -224 97 -25 210 -30 257 -10
37 15 39 22 47 178 4 56 2 104 -3 107 -4 3 -40 -1 -78 -9 -75 -16 -100 -12
-170 24 -33 16 -44 29 -52 58 -14 49 -14 119 0 144 13 26 104 69 145 69 45 0
133 -28 179 -57 106 -67 201 -236 225 -401 16 -107 28 -149 45 -155 8 -4 64
-4 125 -2 61 3 125 5 142 5 l31 0 -6 88 c-17 244 -149 532 -300 653 -29 23
-98 63 -154 90 l-103 48 0 805 0 806 920 0 920 0 0 -118 0 -118 -97 -1 c-211
-1 -333 -65 -408 -212 l-32 -65 -27 51 c-72 143 -195 213 -375 213 -297 0
-506 -201 -542 -523 -19 -176 16 -354 103 -520 62 -119 220 -252 351 -297 109
-37 445 -67 461 -41 4 5 9 61 12 124 3 63 7 123 7 133 2 18 -8 19 -131 22
-142 3 -199 18 -291 76 -82 53 -142 151 -161 267 -16 93 -8 271 13 320 39 90
112 138 206 139 94 0 159 -54 180 -151 9 -38 31 -275 31 -326 0 -10 41 -13
170 -13 l170 0 0 118 c1 127 18 250 44 304 27 57 113 94 257 113 l46 6 6 -83
c4 -46 7 -305 7 -575 l0 -493 180 0 180 0 0 825 0 825 418 0 417 0 -2 -147
c-6 -318 -5 -306 -36 -346 -39 -51 -64 -66 -154 -89 -66 -17 -96 -19 -199 -14
-106 5 -123 4 -128 -10 -12 -32 -6 -224 8 -257 8 -18 72 -107 143 -198 70 -91
191 -249 268 -350 77 -100 151 -195 165 -211 l25 -28 203 -2 c142 -2 202 0
202 8 0 13 -35 61 -185 249 -61 77 -133 169 -160 205 -46 62 -122 157 -208
263 -22 27 -37 50 -35 53 3 2 38 14 78 25 191 52 300 157 347 329 14 54 17
105 16 293 l-1 227 432 0 432 0 -3 -67 c-1 -38 -4 -232 -6 -433 -4 -403 -6
-411 -69 -477 -41 -42 -86 -57 -178 -56 -140 1 -210 58 -236 191 -15 77 -4
133 41 214 30 55 90 84 184 92 35 2 68 9 73 14 16 16 5 236 -12 257 -12 15
-27 17 -95 12 -126 -9 -294 -76 -373 -150 -43 -40 -114 -158 -134 -220 -16
-51 -19 -83 -16 -182 4 -116 6 -123 45 -206 44 -94 91 -152 169 -210 72 -53
109 -66 223 -79 148 -18 267 5 348 66 17 13 33 24 35 24 2 0 2 -99 0 -220 l-3
-220 181 0 181 0 -3 826 -3 825 150 -2 150 -2 0 149 0 149 -1355 5 -1354 5
-82 125 c-45 69 -122 185 -170 258 -129 197 -216 272 -364 317 -62 18 -246 28
-303 16z"/>
<path d="M17151 19162 c-27 -5 -36 -13 -42 -35 -6 -23 -13 -214 -10 -266 1
-11 11 -12 49 -6 73 13 182 11 231 -4 57 -16 102 -64 196 -207 41 -62 90 -133
109 -159 20 -25 36 -50 36 -53 0 -4 -204 -4 -452 -1 -249 3 -875 7 -1390 8
l-938 2 0 -151 0 -150 135 0 135 0 0 -209 c0 -441 39 -640 144 -742 79 -77
111 -98 164 -105 29 -3 52 -10 52 -13 0 -9 -37 -56 -90 -116 -26 -27 -73 -81
-105 -120 -92 -107 -114 -132 -198 -224 -122 -133 -134 -121 127 -121 l225 0
50 58 c27 31 98 113 158 181 270 311 327 379 352 415 l26 40 3 -346 2 -346 26
-5 c14 -2 95 -2 180 1 l154 5 0 821 -1 821 632 3 c348 1 635 -1 639 -5 3 -5 3
-54 0 -111 l-5 -102 -205 -4 c-235 -5 -284 -13 -395 -66 -173 -83 -290 -224
-329 -397 -49 -219 15 -457 165 -605 112 -111 260 -168 434 -168 173 0 266 29
341 107 23 24 45 43 48 43 3 0 6 -83 6 -185 l0 -185 180 0 180 0 0 410 0 410
-175 0 c-152 0 -175 -2 -175 -16 0 -25 -64 -156 -94 -191 -15 -17 -54 -46 -88
-62 -53 -27 -72 -31 -143 -31 -113 0 -178 22 -235 80 -125 124 -126 362 -2
483 20 20 64 49 97 64 l60 28 345 5 345 5 2 245 1 245 173 3 172 2 -7 77 c-3
42 -6 109 -6 149 l0 72 -167 -5 c-199 -6 -167 -26 -300 187 -226 363 -264 411
-375 470 -107 58 -163 72 -293 75 -66 2 -135 1 -154 -3z m-1033 -1319 c-5
-282 -6 -301 -28 -350 -24 -57 -92 -126 -143 -148 -88 -36 -231 -26 -288 22
-73 62 -87 142 -91 526 l-3 247 279 0 279 0 -5 -297z"/>
<path d="M18974 18440 c-184 -27 -324 -121 -395 -267 -32 -65 -34 -73 -34
-183 0 -63 4 -136 8 -161 10 -58 14 -59 219 -59 139 0 150 1 145 18 -43 135
-47 196 -17 257 30 62 62 87 117 92 102 10 183 -42 211 -136 28 -90 4 -263
-46 -336 -36 -52 -113 -110 -182 -136 -60 -23 -228 -38 -441 -39 l-116 0 -7
-46 c-9 -68 -7 -199 3 -226 5 -13 26 -44 46 -68 69 -83 567 -616 599 -641 19
-15 51 -18 229 -20 114 -1 209 0 213 3 5 6 -205 234 -471 508 -83 85 -164 170
-180 189 l-30 33 40 -5 c41 -4 170 14 234 34 56 17 191 86 242 123 61 45 150
173 182 262 33 93 48 223 36 321 -18 142 -64 240 -155 331 -111 110 -299 174
-450 152z"/>
<path d="M9870 18396 c0 -24 -3 -91 -7 -149 l-6 -107 379 0 c208 0 384 -4 391
-8 7 -4 27 -39 45 -77 27 -59 32 -82 33 -145 0 -91 -7 -119 -41 -160 -51 -61
-152 -92 -304 -94 l-85 -1 0 -152 0 -153 121 0 c260 0 357 -45 400 -186 19
-63 18 -89 -7 -162 -42 -126 -129 -167 -349 -166 -144 1 -253 21 -341 64 -24
11 -49 20 -56 20 -18 0 -19 -289 0 -312 44 -59 399 -99 597 -68 162 26 337
109 408 195 15 19 46 69 67 111 38 73 40 82 44 186 2 68 -1 127 -9 156 -17 62
-60 138 -105 184 -44 45 -184 116 -248 124 -26 4 -47 10 -47 13 0 4 34 19 75
35 131 50 224 173 241 319 7 64 -16 163 -53 218 -14 22 -23 43 -19 47 4 4 356
8 782 10 l774 2 2 -130 c0 -71 1 -136 2 -142 1 -16 56 -14 -596 -16 l-558 -2
0 -140 0 -140 141 0 141 0 -37 -42 c-63 -74 -93 -150 -112 -281 -15 -110 -15
-123 1 -225 24 -144 72 -249 157 -337 116 -121 189 -152 421 -182 177 -22 168
-30 168 153 0 148 2 144 -79 144 -55 0 -130 23 -183 56 -81 51 -127 152 -135
300 -7 109 9 170 65 254 32 47 49 61 122 98 103 51 161 62 343 62 l137 0 0
-540 0 -540 158 0 c86 0 167 3 179 6 l21 6 -1 819 -2 819 410 0 410 0 -3 -222
c-2 -123 -7 -239 -12 -259 -20 -74 -159 -119 -367 -119 l-123 0 0 -134 0 -134
90 -118 c49 -66 146 -193 215 -284 69 -91 158 -208 197 -260 38 -52 77 -101
86 -107 11 -10 72 -13 219 -13 112 0 203 3 203 7 0 3 -33 47 -73 97 -172 213
-517 664 -517 676 0 5 28 13 62 19 125 22 257 109 313 206 52 90 66 177 68
420 l1 225 147 0 147 0 4 143 c3 78 3 144 1 146 -1 2 -1018 6 -2258 7 l-2255
3 0 -43z"/>
<path d="M19824 18426 c-3 -8 -4 -445 -2 -973 l3 -958 180 0 180 0 1 820 1
820 149 5 149 5 3 148 3 147 -331 0 c-274 0 -332 -2 -336 -14z"/>
<path d="M8673 17423 l-343 -3 3 -155 2 -155 378 0 377 0 0 154 c0 165 -1 169
-53 164 -12 -2 -176 -4 -364 -5z"/>
<path d="M7298 14813 c12 -2 32 -2 45 0 12 2 2 4 -23 4 -25 0 -35 -2 -22 -4z"/>
</g>
</svg>
